<svg xmlns="http://www.w3.org/2000/svg" viewBox="0 0 612 907">
<title>Person with binoculars, chair removed</title>
<g fill="none" fill-rule="evenodd">
<path d="M 295,733 L 295,737 L 296,737 L 296,733 Z M 277,718 L 277,727 L 278,727 L 278,718 Z M 295,717 L 295,728 L 296,728 L 296,717 Z M 369,712 L 369,732 L 371,732 L 371,712 Z M 301,712 L 301,723 L 302,723 L 302,712 Z M 295,696 L 295,710 L 296,710 L 296,696 Z M 344,694 L 344,703 L 345,703 L 345,694 Z M 258,694 L 258,705 L 259,705 L 259,694 Z M 382,693 L 382,707 L 383,707 L 383,693 Z M 301,693 L 301,709 L 302,709 L 302,693 Z M 371,692 L 369,694 L 369,707 L 371,707 Z M 394,690 L 394,705 L 395,705 L 395,690 Z M 221,688 L 221,706 L 223,706 L 223,692 Z M 252,685 L 252,714 L 253,714 L 253,685 Z M 277,684 L 277,687 L 278,687 L 278,684 Z M 363,683 L 363,692 L 364,692 L 364,683 Z M 283,683 L 283,689 L 284,689 L 284,683 Z M 301,674 L 301,687 L 302,687 L 302,674 Z M 246,670 L 246,698 L 247,698 L 247,670 Z M 332,669 L 332,677 L 333,677 L 333,669 Z M 252,667 L 252,678 L 253,678 L 253,667 Z M 277,663 L 277,674 L 278,674 L 278,663 Z M 258,662 L 258,691 L 259,691 L 259,662 Z M 283,659 L 283,680 L 284,680 L 284,659 Z M 371,657 L 369,660 L 369,689 L 371,689 L 370,683 L 371,681 Z M 308,654 L 308,713 L 309,713 L 309,654 Z M 221,654 L 221,681 L 222,681 L 222,654 Z M 394,653 L 394,687 L 395,687 L 395,653 Z M 301,648 L 301,669 L 302,669 L 302,648 Z M 264,648 L 264,656 L 265,656 L 265,648 Z M 252,648 L 252,664 L 253,664 L 253,648 Z M 270,647 L 270,717 L 271,717 L 271,647 Z M 412,644 L 412,655 L 414,657 L 413,644 Z M 338,643 L 338,658 L 339,658 L 339,643 Z M 295,643 L 295,691 L 296,691 L 296,643 Z M 228,642 L 228,698 L 229,698 L 229,642 Z M 314,640 L 314,700 L 315,700 L 315,640 Z M 332,635 L 332,666 L 333,666 L 333,635 Z M 301,632 L 301,642 L 302,642 L 302,632 Z M 277,626 L 277,634 L 278,634 L 278,626 Z M 412,625 L 412,632 L 413,632 L 413,625 Z M 394,624 L 394,650 L 395,650 L 395,624 Z M 326,624 L 326,639 L 327,639 L 327,624 Z M 252,624 L 252,640 L 253,640 L 253,624 Z M 258,621 L 258,655 L 259,655 L 259,621 Z M 332,616 L 332,631 L 333,631 L 333,616 Z M 418,615 L 418,662 L 419,662 L 419,615 Z M 412,613 L 412,621 L 413,621 L 413,613 Z M 301,613 L 301,621 L 302,621 L 302,613 Z M 252,611 L 252,621 L 253,621 L 253,611 Z M 431,609 L 431,612 L 432,612 L 432,609 Z M 401,609 L 400,612 L 401,628 L 400,630 L 402,633 L 402,609 Z M 295,605 L 295,630 L 296,630 L 296,605 Z M 308,599 L 307,637 L 308,638 L 308,651 L 309,651 L 309,599 Z M 407,597 L 407,624 L 408,624 L 408,597 Z M 264,594 L 264,645 L 265,645 L 265,594 Z M 431,593 L 431,603 L 432,603 L 432,593 Z M 270,591 L 270,644 L 271,644 L 271,591 Z M 418,590 L 418,612 L 419,612 L 419,590 Z M 264,588 L 264,591 L 265,591 L 265,588 Z M 425,581 L 425,620 L 426,620 L 426,581 Z M 295,581 L 295,597 L 296,597 L 296,581 Z M 450,578 L 449,582 L 450,587 L 451,587 L 451,578 Z M 431,578 L 431,589 L 432,589 L 432,578 Z M 338,578 L 338,640 L 339,640 L 339,578 Z M 308,577 L 308,582 L 309,582 L 309,577 Z M 270,577 L 270,588 L 271,588 L 271,577 Z M 301,576 L 301,594 L 302,594 L 302,576 Z M 107,573 L 107,579 L 108,579 L 108,573 Z M 450,571 L 450,575 L 451,575 L 451,571 Z M 425,571 L 425,575 L 426,575 L 426,571 Z M 78,571 L 78,579 L 79,579 L 79,571 Z M 332,570 L 332,613 L 333,613 L 333,570 Z M 107,567 L 107,570 L 108,570 L 108,567 Z M 295,566 L 295,575 L 296,575 L 296,566 Z M 221,565 L 221,571 L 222,571 L 222,565 Z M 450,563 L 450,566 L 451,566 L 451,563 Z M 246,562 L 246,582 L 247,582 L 247,562 Z M 134,562 L 132,565 L 133,568 L 132,575 L 134,574 Z M 431,561 L 431,574 L 432,574 L 432,561 Z M 382,561 L 382,593 L 383,593 L 383,561 Z M 258,561 L 258,569 L 259,569 L 259,561 Z M 83,561 L 83,579 L 84,579 L 84,561 Z M 301,560 L 301,572 L 302,572 L 302,560 Z M 209,560 L 209,578 L 210,578 L 210,560 Z M 197,560 L 197,578 L 198,578 L 198,560 Z M 171,560 L 171,575 L 172,575 L 172,560 Z M 107,560 L 107,563 L 108,563 L 108,560 Z M 309,557 L 307,558 L 307,573 L 309,573 Z M 320,556 L 320,559 L 321,559 L 321,556 Z M 344,555 L 344,655 L 345,655 L 345,555 Z M 234,549 L 234,554 L 235,554 L 235,549 Z M 78,549 L 78,560 L 79,560 L 79,549 Z M 424,548 L 424,560 L 425,560 L 425,548 Z M 314,548 L 314,637 L 315,637 L 315,548 Z M 158,548 L 158,559 L 159,559 L 159,548 Z M 332,547 L 332,554 L 333,554 L 333,547 Z M 215,546 L 215,572 L 216,572 L 216,546 Z M 171,546 L 171,557 L 172,557 L 172,546 Z M 344,545 L 344,552 L 345,552 L 345,545 Z M 450,544 L 450,552 L 451,552 L 451,544 Z M 418,544 L 418,587 L 419,587 L 419,544 Z M 101,544 L 101,555 L 102,555 L 102,544 Z M 431,543 L 431,548 L 432,548 L 432,543 Z M 362,543 L 362,554 L 364,555 L 364,543 Z M 295,543 L 295,560 L 296,560 L 296,543 Z M 209,543 L 209,557 L 210,557 L 210,543 Z M 190,543 L 190,554 L 191,554 L 191,543 Z M 258,542 L 258,550 L 259,550 L 259,542 Z M 83,542 L 83,553 L 84,553 L 84,542 Z M 301,541 L 301,554 L 302,554 L 302,541 Z M 109,541 L 107,541 L 107,555 L 109,554 Z M 197,540 L 197,556 L 198,556 L 198,540 Z M 71,540 L 71,546 L 72,546 L 72,540 Z M 215,539 L 215,542 L 216,542 L 216,539 Z M 309,537 L 307,538 L 307,554 L 309,554 Z M 246,537 L 246,559 L 247,559 L 247,537 Z M 164,536 L 164,560 L 166,560 L 166,536 Z M 77,536 L 77,543 L 78,543 L 78,536 Z M 107,533 L 107,538 L 109,538 L 109,533 Z M 197,532 L 197,537 L 198,537 L 198,532 Z M 158,531 L 158,545 L 159,545 L 159,531 Z M 362,530 L 362,536 L 363,536 L 363,530 Z M 190,530 L 190,535 L 191,535 L 191,530 Z M 101,530 L 101,536 L 102,536 L 102,530 Z M 164,527 L 165,530 L 164,533 L 166,533 L 166,527 Z M 83,525 L 83,535 L 84,535 L 84,525 Z M 246,524 L 246,528 L 247,528 L 247,524 Z M 418,518 L 418,541 L 419,541 L 419,518 Z M 401,518 L 401,544 L 402,544 L 402,518 Z M 301,517 L 301,538 L 302,538 L 302,517 Z M 71,517 L 71,522 L 72,522 L 72,517 Z M 177,516 L 177,522 L 178,522 L 178,516 Z M 332,515 L 332,544 L 333,544 L 333,515 Z M 88,515 L 88,581 L 89,581 L 89,515 Z M 450,513 L 450,522 L 451,522 L 451,513 Z M 325,513 L 326,522 L 326,550 L 325,552 L 326,553 L 326,621 L 327,621 L 327,512 Z M 425,511 L 425,523 L 426,523 L 426,511 Z M 431,509 L 431,537 L 432,537 L 432,509 Z M 338,509 L 338,575 L 339,575 L 339,509 Z M 252,509 L 252,569 L 253,569 L 253,509 Z M 171,509 L 171,539 L 172,539 L 172,509 Z M 166,509 L 165,509 L 164,524 L 166,524 Z M 258,507 L 258,539 L 259,539 L 259,507 Z M 109,507 L 107,507 L 107,525 L 108,525 Z M 344,506 L 344,542 L 345,542 L 345,506 Z M 215,503 L 215,536 L 216,536 L 216,503 Z M 45,503 L 45,532 L 46,532 L 46,503 Z M 308,502 L 307,531 L 309,534 L 309,502 Z M 450,499 L 450,509 L 451,509 L 451,499 Z M 71,499 L 71,506 L 72,506 L 72,499 Z M 190,497 L 190,523 L 191,523 L 191,497 Z M 101,497 L 101,523 L 102,523 L 102,497 Z M 301,496 L 301,514 L 302,514 L 302,496 Z M 276,496 L 277,508 L 278,508 L 277,496 Z M 362,495 L 362,523 L 363,523 L 363,495 Z M 431,494 L 431,501 L 432,501 L 432,494 Z M 252,494 L 252,503 L 253,503 L 253,494 Z M 165,494 L 165,506 L 166,506 L 166,494 Z M 132,494 L 133,498 L 132,555 L 134,555 L 134,495 Z M 58,494 L 58,512 L 59,512 L 59,494 Z M 425,492 L 425,504 L 426,504 L 426,492 Z M 77,492 L 77,500 L 78,500 L 78,492 Z M 326,491 L 325,507 L 327,509 L 327,491 Z M 338,489 L 338,506 L 339,506 L 339,489 Z M 177,488 L 177,513 L 178,513 L 178,488 Z M 107,488 L 107,504 L 108,504 L 108,488 Z M 228,487 L 228,542 L 229,542 L 229,487 Z M 314,484 L 314,545 L 315,545 L 315,484 Z M 114,482 L 114,531 L 115,531 L 115,482 Z M 264,480 L 264,513 L 265,513 L 265,480 Z M 165,479 L 165,486 L 166,486 L 166,479 Z M 320,477 L 320,553 L 321,553 L 321,477 Z M 215,477 L 215,491 L 216,491 L 216,477 Z M 234,476 L 234,546 L 235,546 L 235,476 Z M 301,472 L 301,491 L 302,491 L 302,472 Z M 252,472 L 252,487 L 253,487 L 253,472 Z M 212,242 L 209,243 L 208,248 L 202,257 L 203,260 L 205,260 L 209,255 L 213,246 Z M 202,235 L 198,238 L 195,243 L 195,246 L 190,251 L 190,254 L 192,254 L 194,250 L 197,249 L 203,237 Z M 194,225 L 190,229 L 188,234 L 183,240 L 183,242 L 179,245 L 180,248 L 187,242 L 195,229 Z M 188,165 L 186,169 L 192,172 L 194,177 L 197,179 L 199,177 L 199,173 L 197,169 L 192,165 Z M 533,134 L 525,135 L 521,139 L 520,148 L 521,151 L 525,154 L 530,154 L 535,149 L 536,138 Z M 425,134 L 419,134 L 413,139 L 412,147 L 414,152 L 417,154 L 422,154 L 428,146 L 428,139 Z M 149,35 L 147,37 L 140,39 L 135,46 L 130,47 L 127,53 L 121,56 L 117,60 L 116,66 L 112,71 L 113,78 L 111,82 L 112,90 L 117,95 L 115,102 L 118,106 L 118,110 L 121,116 L 126,118 L 131,125 L 140,129 L 141,141 L 144,145 L 143,152 L 141,153 L 140,156 L 140,164 L 145,170 L 147,170 L 151,174 L 149,180 L 150,184 L 148,186 L 151,195 L 156,200 L 155,206 L 158,209 L 159,213 L 164,218 L 171,221 L 176,221 L 177,225 L 173,228 L 172,231 L 170,231 L 169,234 L 139,249 L 131,254 L 124,261 L 122,261 L 110,273 L 110,275 L 106,277 L 95,297 L 95,300 L 93,302 L 92,308 L 90,310 L 89,316 L 87,318 L 78,347 L 76,350 L 74,360 L 72,362 L 66,383 L 64,385 L 62,394 L 60,396 L 60,400 L 57,404 L 36,461 L 36,465 L 39,471 L 43,475 L 37,494 L 33,519 L 33,534 L 34,542 L 36,543 L 35,547 L 36,555 L 43,572 L 52,583 L 54,583 L 59,588 L 67,592 L 78,595 L 98,596 L 99,597 L 143,597 L 144,596 L 191,596 L 192,595 L 245,594 L 246,595 L 245,598 L 224,628 L 224,630 L 220,633 L 198,661 L 198,663 L 193,667 L 193,669 L 182,679 L 182,683 L 189,694 L 155,734 L 155,737 L 152,738 L 141,753 L 137,761 L 136,767 L 137,781 L 142,789 L 147,794 L 187,815 L 198,824 L 219,846 L 221,846 L 222,849 L 241,860 L 252,863 L 266,863 L 277,860 L 284,856 L 284,854 L 287,853 L 293,845 L 293,841 L 295,839 L 294,822 L 296,821 L 308,832 L 310,832 L 311,835 L 340,863 L 343,863 L 344,866 L 353,871 L 370,876 L 385,875 L 397,869 L 402,863 L 406,852 L 404,850 L 404,846 L 406,845 L 406,839 L 402,828 L 399,826 L 399,822 L 385,805 L 378,793 L 372,774 L 372,765 L 375,759 L 377,760 L 386,759 L 395,734 L 405,714 L 405,710 L 407,709 L 438,645 L 437,642 L 440,640 L 452,610 L 451,606 L 454,605 L 459,588 L 464,577 L 470,549 L 470,530 L 468,518 L 464,506 L 457,493 L 449,484 L 445,483 L 444,480 L 426,470 L 411,465 L 386,461 L 221,462 L 220,463 L 207,463 L 206,465 L 203,463 L 155,468 L 144,468 L 120,472 L 107,473 L 106,475 L 96,474 L 77,477 L 69,477 L 53,474 L 44,466 L 43,462 L 45,458 L 45,454 L 48,450 L 62,414 L 72,385 L 72,381 L 74,380 L 98,308 L 106,290 L 116,276 L 127,265 L 139,257 L 163,245 L 177,261 L 187,268 L 192,269 L 194,272 L 197,271 L 198,274 L 204,277 L 208,277 L 209,279 L 214,279 L 217,282 L 231,287 L 226,315 L 221,333 L 221,338 L 215,353 L 213,353 L 205,345 L 200,344 L 193,328 L 188,323 L 186,324 L 190,331 L 195,345 L 198,348 L 201,348 L 206,353 L 210,361 L 210,365 L 197,387 L 197,390 L 200,391 L 205,385 L 206,381 L 210,377 L 211,373 L 213,372 L 223,352 L 228,335 L 236,297 L 236,292 L 243,263 L 254,229 L 258,229 L 263,232 L 268,232 L 272,234 L 276,233 L 277,235 L 280,236 L 311,239 L 303,322 L 301,392 L 299,402 L 295,413 L 291,419 L 291,422 L 288,423 L 278,434 L 266,441 L 265,443 L 236,450 L 221,449 L 200,443 L 179,432 L 174,428 L 171,428 L 168,424 L 125,394 L 118,392 L 116,396 L 142,415 L 145,415 L 146,418 L 161,429 L 183,443 L 203,452 L 224,457 L 242,457 L 264,451 L 280,442 L 292,431 L 319,439 L 324,439 L 331,442 L 366,447 L 390,445 L 393,443 L 401,442 L 415,435 L 422,430 L 430,421 L 438,405 L 440,398 L 438,395 L 441,393 L 444,366 L 444,356 L 442,355 L 442,353 L 444,352 L 447,250 L 454,229 L 453,213 L 452,210 L 449,211 L 449,228 L 446,238 L 442,245 L 427,245 L 402,241 L 397,231 L 394,219 L 390,217 L 389,222 L 392,234 L 395,239 L 395,245 L 384,289 L 375,335 L 372,338 L 356,321 L 348,314 L 343,312 L 339,306 L 312,285 L 313,259 L 314,258 L 314,231 L 317,230 L 322,220 L 329,198 L 329,195 L 327,194 L 327,190 L 325,189 L 327,187 L 327,181 L 329,177 L 328,163 L 327,163 L 327,172 L 322,203 L 309,233 L 285,231 L 258,224 L 258,219 L 265,188 L 266,176 L 269,165 L 268,161 L 265,161 L 264,166 L 266,167 L 267,172 L 266,175 L 264,176 L 264,181 L 261,182 L 261,186 L 258,189 L 254,212 L 254,221 L 250,225 L 246,234 L 240,234 L 238,232 L 228,229 L 216,223 L 204,214 L 202,214 L 192,202 L 191,199 L 188,198 L 180,173 L 180,155 L 184,150 L 188,149 L 195,152 L 204,162 L 211,162 L 214,161 L 231,143 L 242,135 L 247,133 L 249,130 L 252,130 L 268,123 L 272,124 L 272,127 L 274,130 L 272,132 L 273,137 L 269,139 L 269,141 L 272,142 L 272,145 L 267,151 L 271,153 L 285,89 L 288,85 L 290,86 L 292,91 L 292,116 L 287,122 L 283,130 L 284,133 L 287,131 L 291,123 L 293,122 L 293,120 L 307,109 L 310,110 L 309,113 L 304,118 L 302,123 L 295,130 L 294,134 L 296,134 L 300,130 L 302,125 L 307,121 L 312,114 L 321,107 L 325,106 L 326,108 L 314,120 L 314,123 L 311,124 L 305,136 L 308,136 L 319,122 L 334,108 L 350,101 L 353,101 L 356,104 L 355,107 L 346,113 L 338,124 L 332,136 L 328,152 L 328,160 L 330,160 L 331,146 L 333,143 L 333,138 L 336,132 L 338,131 L 338,127 L 341,125 L 343,120 L 348,116 L 351,111 L 356,106 L 360,105 L 360,102 L 358,103 L 356,102 L 359,98 L 354,96 L 348,96 L 336,101 L 319,101 L 314,104 L 301,105 L 300,107 L 297,106 L 298,98 L 295,83 L 291,79 L 284,78 L 281,74 L 276,71 L 270,69 L 264,69 L 262,71 L 260,67 L 254,65 L 247,65 L 244,67 L 241,67 L 238,65 L 228,65 L 225,68 L 222,68 L 219,66 L 209,66 L 205,57 L 199,52 L 198,47 L 195,46 L 191,42 L 185,41 L 183,38 L 175,35 L 159,35 L 157,37 L 155,37 L 154,35 Z M 268,767 L 270,766 L 275,772 L 277,772 L 279,777 L 298,798 L 309,807 L 329,827 L 346,841 L 365,852 L 375,855 L 391,855 L 398,853 L 399,856 L 397,860 L 391,866 L 380,870 L 365,869 L 356,866 L 346,860 L 336,852 L 314,830 L 312,830 L 311,827 L 303,819 L 286,806 L 273,790 L 267,785 L 266,771 Z M 141,764 L 147,758 L 175,784 L 184,791 L 188,792 L 189,795 L 203,806 L 205,806 L 213,815 L 230,827 L 246,835 L 258,839 L 269,841 L 280,841 L 287,839 L 288,842 L 286,847 L 278,853 L 267,857 L 252,857 L 234,850 L 220,838 L 218,838 L 216,834 L 203,821 L 201,821 L 200,818 L 192,811 L 183,805 L 151,789 L 143,779 Z M 254,744 L 272,750 L 266,759 L 260,773 L 257,772 L 257,769 L 252,757 L 252,747 Z M 278,751 L 293,751 L 296,749 L 301,749 L 306,743 L 310,735 L 312,734 L 336,748 L 355,755 L 367,757 L 369,759 L 367,766 L 367,775 L 371,790 L 382,810 L 394,823 L 398,835 L 400,837 L 400,845 L 390,850 L 378,850 L 369,848 L 350,837 L 304,796 L 282,773 L 279,772 L 279,769 L 274,765 L 272,760 Z M 317,725 L 319,726 L 318,731 L 315,729 Z M 323,715 L 325,716 L 326,719 L 324,734 L 320,732 L 320,719 Z M 191,699 L 193,699 L 207,713 L 222,725 L 249,742 L 247,747 L 247,760 L 250,769 L 261,787 L 270,796 L 270,798 L 274,803 L 277,804 L 278,808 L 285,817 L 289,826 L 288,833 L 283,835 L 266,835 L 251,831 L 233,822 L 175,777 L 149,753 L 153,746 Z M 336,693 L 338,694 L 338,740 L 337,741 L 333,739 L 333,720 L 332,720 L 332,738 L 330,739 L 327,736 L 327,708 L 329,704 L 331,703 L 332,704 L 332,717 L 333,717 L 333,698 Z M 348,675 L 350,676 L 350,745 L 349,746 L 345,744 L 345,706 L 344,706 L 344,743 L 342,744 L 339,742 L 339,689 L 342,685 L 344,686 L 344,689 L 345,689 L 345,679 Z M 195,674 L 197,675 L 197,690 L 192,691 L 190,680 Z M 201,668 L 203,669 L 203,697 L 202,698 L 198,695 L 198,671 Z M 354,666 L 356,667 L 356,747 L 353,748 L 351,744 L 351,669 Z M 374,633 L 376,634 L 376,752 L 372,753 L 371,752 L 371,735 L 369,735 L 369,750 L 368,751 L 364,750 L 364,695 L 363,695 L 363,749 L 360,750 L 357,748 L 358,731 L 357,730 L 358,694 L 357,690 L 358,689 L 358,659 L 361,655 L 363,656 L 363,680 L 364,680 L 364,649 L 368,645 L 369,653 L 371,653 L 371,638 Z M 265,558 L 267,557 L 270,561 L 266,562 Z M 265,551 L 268,550 L 269,552 L 266,553 Z M 445,489 L 450,493 L 450,496 L 452,496 L 456,500 L 456,555 L 457,555 L 457,511 L 458,510 L 461,513 L 462,529 L 464,530 L 465,534 L 464,549 L 462,550 L 462,555 L 464,557 L 462,558 L 459,571 L 457,570 L 457,558 L 456,558 L 456,582 L 453,591 L 450,593 L 450,598 L 446,608 L 444,607 L 444,490 Z M 93,481 L 94,482 L 94,589 L 91,590 L 88,585 L 87,589 L 80,590 L 79,582 L 78,582 L 77,587 L 72,586 L 72,571 L 71,571 L 71,584 L 70,585 L 66,584 L 66,484 L 70,483 L 72,487 L 72,484 L 76,483 L 77,488 L 78,488 L 79,483 L 83,484 L 83,522 L 84,522 L 84,484 L 86,482 L 88,483 L 88,512 L 89,512 L 89,483 Z M 119,478 L 120,479 L 120,589 L 119,590 L 115,589 L 115,534 L 114,534 L 114,589 L 111,591 L 109,589 L 108,584 L 107,584 L 106,590 L 102,589 L 102,562 L 101,562 L 101,589 L 96,590 L 95,589 L 95,482 L 100,481 L 101,489 L 102,489 L 103,480 L 106,480 L 108,482 L 110,479 Z M 47,478 L 52,480 L 52,544 L 53,544 L 53,482 L 57,481 L 58,486 L 60,482 L 65,483 L 65,582 L 64,583 L 59,580 L 59,569 L 58,569 L 58,577 L 56,578 L 53,575 L 53,547 L 52,547 L 52,569 L 50,570 L 46,564 L 46,535 L 45,535 L 45,554 L 44,555 L 42,554 L 40,544 L 39,512 L 43,493 L 45,494 L 45,500 L 46,500 L 46,479 Z M 122,477 L 126,478 L 126,590 L 125,591 L 121,590 L 121,478 Z M 151,474 L 152,475 L 152,589 L 151,590 L 146,589 L 146,479 L 145,479 L 145,589 L 144,590 L 140,589 L 140,489 L 139,489 L 139,589 L 138,590 L 134,589 L 134,578 L 133,578 L 132,589 L 128,590 L 127,589 L 127,478 L 129,476 L 132,477 L 132,491 L 133,491 L 135,474 L 139,477 L 139,486 L 140,486 L 140,476 L 143,473 L 145,474 L 145,476 Z M 202,470 L 203,471 L 203,588 L 199,589 L 198,583 L 196,583 L 195,589 L 191,588 L 191,562 L 190,562 L 190,588 L 189,589 L 184,588 L 184,572 L 183,572 L 183,588 L 182,589 L 178,588 L 178,525 L 177,525 L 177,589 L 176,590 L 172,589 L 172,578 L 171,578 L 171,588 L 169,590 L 166,589 L 166,564 L 164,564 L 164,574 L 165,575 L 164,589 L 163,590 L 159,589 L 159,571 L 158,571 L 158,589 L 154,590 L 153,589 L 153,475 L 154,474 L 158,475 L 158,527 L 159,527 L 159,474 L 164,473 L 165,476 L 167,472 L 171,474 L 171,502 L 172,502 L 172,473 L 173,472 L 177,473 L 177,485 L 178,485 L 178,473 L 180,471 L 183,472 L 183,565 L 184,565 L 184,472 L 185,471 L 189,472 L 190,483 L 191,483 L 191,471 L 192,470 L 196,471 L 197,481 L 196,529 L 198,529 L 198,471 Z M 397,467 L 401,469 L 401,481 L 402,481 L 402,470 L 403,469 L 406,469 L 407,472 L 409,470 L 412,471 L 412,487 L 413,487 L 413,472 L 415,471 L 418,473 L 418,515 L 419,515 L 419,475 L 422,474 L 425,476 L 425,486 L 426,486 L 427,477 L 431,479 L 431,487 L 432,487 L 433,480 L 437,482 L 437,494 L 438,494 L 438,485 L 440,484 L 443,486 L 443,610 L 444,614 L 441,622 L 439,623 L 438,622 L 438,497 L 437,497 L 437,631 L 435,636 L 433,637 L 432,636 L 432,626 L 431,626 L 431,647 L 429,648 L 428,652 L 425,654 L 423,663 L 419,667 L 419,671 L 416,676 L 414,675 L 414,669 L 412,669 L 413,685 L 411,688 L 408,687 L 408,627 L 407,627 L 407,697 L 404,700 L 402,699 L 402,641 L 401,641 L 401,666 L 400,667 L 401,707 L 398,713 L 395,715 L 394,722 L 392,727 L 390,728 L 389,727 L 389,623 L 388,623 L 388,727 L 389,735 L 386,743 L 384,744 L 383,743 L 383,722 L 382,722 L 383,750 L 381,754 L 378,754 L 377,753 L 377,628 L 380,624 L 382,625 L 382,690 L 383,690 L 383,617 L 387,614 L 388,620 L 389,620 L 389,608 L 390,605 L 393,604 L 394,605 L 394,621 L 395,621 L 395,598 L 397,594 L 399,593 L 400,603 L 402,606 L 402,592 L 401,591 L 402,584 L 404,580 L 406,579 L 407,580 L 407,592 L 408,592 L 408,570 L 410,567 L 412,568 L 412,610 L 413,610 L 413,554 L 415,548 L 413,490 L 412,490 L 412,506 L 410,507 L 408,504 L 408,478 L 407,478 L 407,498 L 406,499 L 402,495 L 402,490 L 399,492 L 395,488 L 395,468 Z M 354,474 L 356,476 L 356,569 L 357,569 L 357,477 L 360,476 L 362,478 L 362,488 L 363,488 L 363,479 L 366,478 L 369,481 L 369,557 L 370,557 L 371,549 L 370,482 L 372,481 L 376,484 L 376,601 L 377,601 L 377,486 L 378,485 L 382,487 L 382,558 L 383,558 L 383,489 L 386,488 L 388,491 L 388,555 L 389,555 L 389,494 L 391,493 L 394,496 L 394,573 L 395,573 L 395,500 L 396,499 L 401,504 L 401,511 L 404,509 L 407,515 L 409,516 L 407,518 L 407,521 L 409,522 L 407,524 L 407,556 L 405,562 L 403,563 L 402,562 L 402,550 L 401,550 L 401,572 L 397,580 L 395,579 L 395,576 L 394,576 L 394,587 L 391,592 L 389,591 L 389,563 L 388,563 L 388,600 L 384,602 L 383,596 L 382,596 L 382,608 L 379,612 L 377,611 L 377,604 L 376,604 L 376,618 L 372,624 L 370,623 L 371,560 L 369,560 L 369,632 L 366,634 L 364,633 L 364,561 L 363,561 L 363,639 L 359,645 L 357,644 L 358,586 L 357,585 L 357,572 L 356,572 L 356,651 L 352,654 L 351,653 L 351,515 L 350,515 L 350,660 L 346,664 L 345,658 L 344,658 L 344,672 L 341,674 L 339,673 L 339,666 L 338,666 L 338,679 L 335,683 L 332,681 L 333,686 L 331,690 L 328,692 L 327,691 L 327,642 L 326,642 L 326,697 L 324,701 L 322,702 L 321,701 L 321,562 L 320,562 L 320,707 L 318,711 L 316,712 L 315,704 L 314,704 L 314,720 L 310,722 L 309,716 L 308,716 L 308,727 L 304,733 L 301,730 L 300,742 L 297,743 L 295,740 L 294,744 L 291,744 L 289,742 L 288,745 L 285,745 L 284,744 L 284,692 L 283,692 L 283,744 L 280,745 L 278,743 L 278,735 L 277,735 L 277,743 L 274,744 L 271,742 L 271,725 L 270,725 L 270,741 L 267,742 L 265,740 L 265,659 L 264,659 L 264,739 L 263,740 L 259,738 L 259,708 L 258,708 L 258,736 L 255,737 L 253,735 L 253,717 L 252,717 L 252,734 L 250,735 L 247,732 L 247,701 L 246,701 L 246,730 L 243,731 L 241,729 L 241,642 L 240,642 L 240,727 L 238,728 L 235,725 L 235,631 L 234,631 L 234,723 L 233,724 L 229,722 L 229,704 L 228,704 L 228,719 L 226,720 L 217,713 L 216,700 L 215,700 L 214,710 L 211,708 L 210,702 L 207,704 L 204,701 L 204,664 L 207,661 L 209,662 L 209,690 L 210,690 L 210,658 L 211,655 L 214,652 L 214,650 L 217,649 L 218,645 L 222,646 L 222,641 L 226,636 L 229,639 L 229,632 L 238,619 L 240,620 L 240,639 L 241,639 L 241,614 L 242,610 L 245,609 L 246,610 L 246,667 L 247,667 L 247,605 L 249,602 L 252,605 L 251,600 L 255,592 L 257,591 L 258,592 L 258,618 L 259,618 L 259,589 L 258,587 L 262,581 L 264,582 L 264,585 L 265,585 L 265,575 L 268,572 L 271,573 L 271,565 L 275,561 L 276,562 L 276,588 L 277,588 L 276,558 L 281,548 L 283,549 L 283,656 L 284,656 L 284,541 L 288,537 L 289,538 L 289,738 L 290,738 L 290,468 L 291,467 L 295,468 L 295,540 L 296,540 L 296,468 L 297,467 L 307,468 L 308,497 L 309,497 L 309,468 L 312,467 L 314,469 L 314,481 L 315,481 L 315,469 L 316,468 L 319,468 L 320,471 L 322,468 L 326,470 L 326,488 L 327,488 L 327,470 L 328,469 L 331,470 L 332,512 L 333,512 L 333,471 L 336,470 L 338,472 L 338,486 L 339,486 L 339,472 L 341,471 L 344,473 L 344,503 L 345,503 L 345,474 L 346,473 L 350,474 L 350,512 L 351,512 L 351,475 Z M 285,467 L 289,468 L 289,533 L 288,534 L 284,533 L 284,468 Z M 282,467 L 283,468 L 283,537 L 280,542 L 277,543 L 275,550 L 272,552 L 271,551 L 271,468 L 272,467 L 276,468 L 276,485 L 277,485 L 277,468 Z M 269,467 L 270,468 L 270,536 L 269,537 L 265,536 L 265,516 L 264,516 L 264,567 L 262,571 L 259,572 L 259,575 L 255,582 L 252,580 L 253,584 L 251,588 L 241,587 L 241,491 L 240,491 L 240,587 L 239,588 L 235,587 L 235,557 L 234,557 L 234,587 L 233,588 L 229,587 L 229,551 L 228,551 L 228,587 L 227,588 L 222,587 L 222,577 L 221,577 L 221,587 L 220,588 L 216,587 L 216,579 L 215,579 L 215,587 L 212,589 L 210,587 L 210,581 L 209,581 L 209,588 L 205,589 L 204,588 L 204,471 L 206,469 L 209,470 L 209,540 L 210,540 L 210,470 L 211,469 L 221,470 L 221,561 L 222,561 L 222,469 L 223,468 L 227,469 L 228,476 L 229,476 L 230,468 L 233,468 L 234,471 L 236,468 L 240,469 L 240,488 L 241,488 L 241,469 L 242,468 L 246,469 L 246,520 L 247,520 L 247,468 L 248,467 L 251,467 L 252,469 L 254,467 L 258,468 L 258,504 L 259,504 L 259,468 L 263,467 L 264,472 L 265,472 L 265,468 Z M 384,466 L 387,466 L 388,469 L 390,467 L 394,468 L 394,486 L 393,487 L 389,483 L 389,476 L 388,476 L 387,482 L 383,480 L 383,467 Z M 378,466 L 382,467 L 382,477 L 381,478 L 377,476 Z M 372,465 L 376,467 L 375,475 L 371,474 Z M 365,465 L 369,466 L 368,473 L 364,471 Z M 358,466 L 362,465 L 363,469 L 359,470 Z M 352,466 L 355,465 L 356,467 L 353,468 Z M 347,466 L 349,465 L 350,468 L 348,469 Z M 50,432 L 52,431 L 53,433 L 51,434 Z M 445,250 L 446,252 L 444,253 L 442,270 L 440,320 L 439,321 L 439,328 L 441,329 L 441,331 L 439,332 L 440,338 L 438,350 L 440,352 L 438,353 L 437,375 L 434,395 L 430,407 L 424,417 L 414,427 L 402,434 L 389,438 L 374,440 L 347,438 L 298,426 L 297,424 L 305,408 L 309,388 L 309,331 L 310,330 L 312,293 L 314,292 L 337,312 L 339,312 L 348,322 L 359,332 L 361,332 L 363,336 L 371,344 L 370,348 L 365,349 L 364,352 L 361,352 L 360,355 L 355,358 L 355,360 L 357,360 L 359,357 L 362,357 L 363,355 L 367,353 L 369,354 L 361,370 L 361,373 L 363,373 L 370,365 L 379,343 L 389,301 L 393,276 L 399,253 L 399,248 L 403,246 L 419,250 L 432,250 L 433,251 Z M 189,207 L 193,209 L 194,213 L 201,220 L 204,220 L 205,223 L 224,234 L 244,240 L 232,281 L 211,274 L 190,264 L 181,258 L 167,243 L 180,229 Z M 151,154 L 153,153 L 154,155 L 152,156 Z" fill="#050505"/>
<path d="M 270,129 L 265,131 L 257,140 L 244,148 L 238,154 L 235,160 L 235,166 L 237,171 L 244,177 L 258,183 L 260,180 L 265,147 Z M 330,192 L 372,207 L 379,212 L 399,216 L 415,216 L 424,214 L 440,207 L 444,203 L 450,203 L 499,214 L 531,214 L 540,211 L 550,205 L 561,194 L 569,182 L 576,166 L 581,148 L 580,121 L 574,105 L 568,96 L 556,85 L 540,79 L 526,78 L 513,80 L 498,87 L 465,98 L 461,98 L 454,90 L 437,80 L 428,78 L 406,79 L 392,85 L 385,90 L 361,99 L 362,106 L 360,110 L 348,121 L 339,135 L 335,148 L 332,181 Z M 537,104 L 544,107 L 554,119 L 558,133 L 557,146 L 550,164 L 544,173 L 537,180 L 523,187 L 511,187 L 503,183 L 494,171 L 492,161 L 494,141 L 502,123 L 511,112 L 522,105 Z M 429,104 L 436,107 L 444,115 L 447,121 L 450,132 L 450,143 L 448,151 L 440,168 L 428,181 L 416,187 L 403,187 L 395,183 L 390,178 L 386,170 L 384,156 L 388,135 L 394,123 L 402,113 L 412,106 L 418,104 Z" fill="#3431F4"/>
</g>
</svg>